#N canvas 515 68 674 716 12;
#X obj 105 278 grids, f 64;
#X floatatom 154 243 5 0 0 0 - - -, f 5;
#X floatatom 203 243 5 0 0 0 - - -, f 5;
#X floatatom 253 243 5 0 0 0 - - -, f 5;
#X floatatom 302 243 5 0 0 0 - - -, f 5;
#X floatatom 352 245 5 0 0 0 - - -, f 5;
#X floatatom 401 243 5 0 0 0 - - -, f 5;
#X text 374 223 Y;
#X text 325 223 X;
#X text 411 221 rnd;
#X floatatom 450 240 5 0 0 0 - - -, f 5;
#X text 443 219 kick_e;
#X floatatom 500 243 5 0 0 0 - - -, f 5;
#X floatatom 550 240 5 0 0 0 - - -, f 5;
#X text 552 219 hh_e;
#X text 256 222 hh_d;
#X text 146 219 kick_d;
#X text 200 306 sn_g;
#X text 293 308 hh_g;
#X text 380 310 ki_a;
#X text 470 310 sn_a;
#X text 560 310 hh_a;
#X obj 105 350 bng 15 250 50 0 empty empty empty 17 7 0 10 #fcfcfc
#000000 #000000;
#X obj 194 348 bng 16 250 50 0 empty empty empty 17 7 0 10 #fcfcfc
#000000 #000000;
#X obj 284 349 bng 15 250 50 0 empty empty empty 17 7 0 10 #fcfcfc
#000000 #000000;
#X text 151 186 mode / clock;
#X obj 104 82 metro 500;
#X obj 104 42 tgl 15 0 empty empty empty 17 7 0 10 #fcfcfc #000000
#000000 1 1;
#X obj 104 122 bng 15 250 50 0 empty empty empty 17 7 0 10 #fcfcfc
#000000 #000000;
#X obj 164 152 + 1;
#X floatatom 105 189 5 0 0 0 - - -, f 5;
#X obj 104 152 int 1;
#X msg 45 120 0;
#X text 207 220 sn_d;
#X text 503 218 sn_d;
#X text 111 307 kick_g;
#X obj 196 614 dac~;
#X obj 217 535 hsl 128 15 0 1 0 0 empty empty empty -2 -8 0 10 #fcfcfc
#000000 #000000 8500 1;
#X obj 196 567 *~;
#N canvas 96 150 450 300 snare 0;
#X msg 153 67 1 \, 0 50;
#X obj 153 101 line~;
#X obj 98 68 noise~;
#X obj 122 152 *~;
#X obj 153 15 inlet;
#X obj 123 205 outlet~;
#X connect 0 0 1 0;
#X connect 1 0 3 1;
#X connect 2 0 3 0;
#X connect 3 0 5 0;
#X connect 4 0 0 0;
#X restore 195 411 pd snare;
#N canvas 580 246 450 300 kick 0;
#X obj 249 142 line~;
#X obj 129 178 *~;
#X msg 249 118 1 \, 0 50;
#X obj 129 147 osc~;
#X obj 129 109 line~;
#X msg 129 76 220 \, 50 20;
#X msg 178 111 0.5;
#X obj 129 237 outlet~;
#X obj 285 30 inlet;
#X connect 0 0 1 1;
#X connect 1 0 7 0;
#X connect 2 0 0 0;
#X connect 3 0 1 0;
#X connect 4 0 3 0;
#X connect 5 0 4 0;
#X connect 6 0 3 1;
#X connect 8 0 5 0;
#X connect 8 0 6 0;
#X connect 8 0 2 0;
#X restore 104 408 pd kick;
#N canvas 96 150 450 300 hihat 0;
#X obj 153 101 line~;
#X obj 98 68 noise~;
#X obj 122 152 *~;
#X obj 153 15 inlet;
#X obj 123 205 outlet~;
#X msg 153 67 1 \, 0 20;
#X connect 0 0 2 1;
#X connect 1 0 2 0;
#X connect 2 0 4 0;
#X connect 3 0 5 0;
#X connect 5 0 0 0;
#X restore 284 411 pd hihat;
#X floatatom 164 48 5 0 0 0 - - -, f 5;
#X connect 0 0 22 0;
#X connect 0 1 23 0;
#X connect 0 2 24 0;
#X connect 1 0 0 1;
#X connect 2 0 0 2;
#X connect 3 0 0 3;
#X connect 4 0 0 4;
#X connect 5 0 0 5;
#X connect 6 0 0 6;
#X connect 10 0 0 7;
#X connect 12 0 0 8;
#X connect 13 0 0 9;
#X connect 22 0 40 0;
#X connect 23 0 39 0;
#X connect 24 0 41 0;
#X connect 26 0 28 0;
#X connect 27 0 26 0;
#X connect 28 0 31 0;
#X connect 29 0 31 1;
#X connect 30 0 0 0;
#X connect 31 0 29 0;
#X connect 31 0 30 0;
#X connect 32 0 31 0;
#X connect 37 0 38 1;
#X connect 38 0 36 0;
#X connect 38 0 36 1;
#X connect 39 0 38 0;
#X connect 40 0 38 0;
#X connect 41 0 38 0;
#X connect 42 0 26 1;
